<?xml version="1.0" encoding="UTF-8" standalone="no"?>
<svg xmlns="http://www.w3.org/2000/svg" xmlns:xlink="http://www.w3.org/1999/xlink" width="48" height="48">
  <defs>
    <linearGradient id="g">
      <stop offset="0"/>
      <stop offset="1" stop-opacity="0"/>
    </linearGradient>
    <linearGradient id="e">
      <stop offset="0" stop-opacity="0"/>
      <stop offset=".5"/>
      <stop offset="1" stop-opacity="0"/>
    </linearGradient>
    <linearGradient id="f">
      <stop offset="0" stop-color="#fff"/>
      <stop offset=".5" stop-color="#fff520" stop-opacity=".89108908"/>
      <stop offset="1" stop-color="#fff300" stop-opacity="0"/>
    </linearGradient>
    <linearGradient id="d">
      <stop offset="0" stop-color="#fff"/>
      <stop offset="1" stop-color="#fff" stop-opacity="0"/>
    </linearGradient>
    <linearGradient id="c">
      <stop offset="0" stop-color="#d6e3f0"/>
      <stop offset="1" stop-color="#95b1cf"/>
    </linearGradient>
    <linearGradient id="b">
      <stop offset="0" stop-color="#fff"/>
      <stop offset="1" stop-color="#cbcbcb"/>
    </linearGradient>
    <linearGradient id="a">
      <stop offset="0" stop-opacity=".06862745"/>
      <stop offset="1" stop-color="#fff"/>
    </linearGradient>
    <linearGradient xlink:href="#a" id="m" x1="35.433035" x2="41.219128" y1="4.953005" y2="4.9530048" gradientTransform="matrix(.254 0 0 3.75981 .788629 .148567)" gradientUnits="userSpaceOnUse"/>
    <linearGradient xlink:href="#b" id="k" x1="10.496115" x2="10.219901" y1="93.338043" y2="84.287079" gradientTransform="matrix(2.26274 0 0 .44194 1 -.875)" gradientUnits="userSpaceOnUse"/>
    <linearGradient xlink:href="#c" id="l" x1="6.5871811" x2="14.511404" y1="22.132999" y2="22.132999" gradientTransform="matrix(.95775 0 0 1.02799 1 -.571911)" gradientUnits="userSpaceOnUse"/>
    <linearGradient xlink:href="#d" id="n" x1="73.361984" x2="-2.7582901" y1="26.652197" y2="21.270376" gradientTransform="matrix(1.02543 0 0 .9573 0 -.806758)" gradientUnits="userSpaceOnUse"/>
    <linearGradient xlink:href="#e" id="h" x1="302.85715" x2="302.85715" y1="366.64789" y2="609.50507" gradientTransform="matrix(2.77439 0 0 1.9697 -1892.179 -872.8854)" gradientUnits="userSpaceOnUse"/>
    <radialGradient xlink:href="#f" id="o" cx="55" cy="125" r="14.375" fx="55" fy="125" gradientUnits="userSpaceOnUse"/>
    <radialGradient xlink:href="#g" id="i" cx="605.71429" cy="486.64789" r="117.14286" fx="605.71429" fy="486.64789" gradientTransform="matrix(2.77439 0 0 1.9697 -1891.633 -872.8854)" gradientUnits="userSpaceOnUse"/>
    <radialGradient xlink:href="#g" id="j" cx="605.71429" cy="486.64789" r="117.14286" fx="605.71429" fy="486.64789" gradientTransform="matrix(-2.77439 0 0 1.9697 112.7623 -872.8854)" gradientUnits="userSpaceOnUse"/>
  </defs>
  <path fill="#edd400" fill-rule="evenodd" stroke="#c4a000" stroke-linecap="round" stroke-linejoin="round" d="M33.096456 4.6520202h7.424621c.707107 0 1.237436.1767767 1.414213 1.0606598l.883884 6.894292c.088388 1.06066-.375651 1.414213-1.325825 1.414213h-8.57367l.176777-9.3691648z" color="#000" overflow="visible" style="marker:none"/>
  <path fill="none" stroke="#fff" stroke-linecap="round" stroke-linejoin="round" stroke-width="1.0000006" d="M34.10295 5.638875h6.360557c.308149 0 .476759.030162.522547.321598l.791435 6.383976c.069769.430972.182408.675355-.140278.689892h-7.673799l.139538-7.395466z" color="#000" opacity=".48538011" overflow="visible" style="marker:none"/>
  <path fill="#9db029" fill-rule="evenodd" stroke="#727e0a" stroke-linecap="round" stroke-linejoin="round" d="M35.596456 12.40202h7.424621c.707107 0 1.237436.176777 1.414213 1.06066l.883884 6.894292c.088388 1.06066-.375651 1.414213-1.325825 1.414213h-8.57367l.176777-9.369165z" color="#000" overflow="visible" style="marker:none"/>
  <path fill="none" stroke="#fff" stroke-linecap="round" stroke-linejoin="round" stroke-width="1.0000006" d="M36.60295 13.388875h6.360557c.308149 0 .476759.030162.522547.321598l.791435 6.383976c.069769.430972.182408.675355-.140278.689892h-7.673799l.139538-7.395466z" color="#000" opacity=".48538011" overflow="visible" style="marker:none"/>
  <path fill="#ef2929" fill-rule="evenodd" stroke="#c00" stroke-linecap="round" stroke-linejoin="round" stroke-width=".99999988" d="M36.06451 20.776498h8.44541c.804325 0 1.407567.219398 1.608649 1.316384l1.005406 8.556499c.10054 1.316384-.427298 1.755179-1.508109 1.755179h-9.752438l.201082-11.628062z" color="#000" overflow="visible" style="marker:none"/>
  <path fill="none" stroke="#fff" stroke-linecap="round" stroke-linejoin="round" stroke-width="1.00000072" d="M37.209384 21.763574h7.235051c.350515 0 .542307.038354.59439.408939l.900247 8.117754c.079361.548017.207487.858771-.159564.877255h-8.728847l.158723-9.403948z" color="#000" opacity=".48538011" overflow="visible" style="marker:none"/>
  <g color="#000" transform="matrix(.02165 0 0 .04308 43.08625 34.04509)">
    <path fill="url(#h)" d="M-1559.2523-150.69685h1339.6335v478.35718h-1339.6335z" opacity=".40206185" overflow="visible" style="marker:none"/>
    <path fill="url(#i)" d="M-219.61876-150.68038v478.33079c142.874166.90045 345.40022-107.16966 345.40014-239.196175 0-132.026537-159.436816-239.134595-345.40014-239.134615z" opacity=".40206185" overflow="visible" style="marker:none"/>
    <path fill="url(#j)" d="M-1559.2523-150.68038v478.33079c-142.8742.90045-345.4002-107.16966-345.4002-239.196175 0-132.026537 159.4368-239.134595 345.4002-239.134615z" opacity=".40206185" overflow="visible" style="marker:none"/>
  </g>
  <path fill="#5b6b94" stroke="#364878" stroke-linecap="round" stroke-linejoin="round" stroke-width="1.00000012" d="M6.3643222 5.5185897c.0907827-1.9149894 1.0076536-2.9643083 2.7145562-2.9695457l29.3268976-.0899863c.246585-.0007566.568541.2001494.593236.4499311l3.258479 32.9582392-1.315302.056634.62924 6.445654c.061012.624983-.18137 1.159304-1.071429 1.163519l-30.7106954.145439c-2.5325446.011994-5.1354592-2.078714-5.0133709-4.654071L6.3643222 5.5185897z" color="#000" overflow="visible" style="marker:none"/>
  <path fill="url(#k)" d="M40.125 34.875 10.9375 35c-1.5565181.177868-2.8125 1.39612-2.8125 3s1.2559819 2.822132 2.8125 3l29.1875.125v-.0625c-1.655622-.078152-3-1.387649-3-3.0625s1.344378-2.984348 3-3.0625v-.0625z" color="#000" overflow="visible" style="marker:none"/>
  <path fill="url(#l)" d="M9.6875 2.8125c-1.7069103 0-2.637397 1.0090062-2.71875 2.8613658L5.3125 37.825772c-.09196 3.078427 1.8268732 4.828713 3.8125 5.330478-4.25-1.630671-3.6875-8.991795 1.625-8.961028h30.898286l-3.3125-30.9519788c-.025761-.2407128-.347908-.4307432-.59375-.4307432H9.6875z" color="#000" overflow="visible" style="marker:none"/>
  <path fill="url(#m)" d="M9.7886267 3.968539h2v29.604792h-2z" color="#000" opacity=".48044691" overflow="visible" style="marker:none" transform="skewX(-2.053) scale(1 .99936)"/>
  <path fill="none" stroke="url(#n)" stroke-linecap="round" stroke-miterlimit="20" stroke-width="1.00000012" d="M9.8751008 3.3336831c-1.6838994 0-2.3366772.7321628-2.4169335 2.5541479l-1.298904 29.889367c.9333283-1.606747 2.4395958-2.182761 4.8524017-2.182761h29.951416L38.137179 3.7573631c-.022452-.2370539-.343218-.42368-.585745-.42368H9.8751008z" color="#000" overflow="visible" style="marker:none"/>
  <path fill="#ad7fa8" d="M21.12553 18.381288c-.075247 1.120982.143846 2.002867.657282 2.645659.513939.634962 1.256929.952441 2.228976.95244.964182.000001 1.742217-.321397 2.334104-.964197.599697-.642792.936907-1.52076 1.011637-2.633902.073644-1.097449-.150157-1.967579-.671406-2.610383-.520752-.650626-1.259297-.975946-2.215641-.975955-.94853.000009-1.726565.32141-2.334104.964195-.599722.642807-.936671 1.516853-1.010848 2.622143m6.1724 3.515787c-.510868.603604-1.081747 1.050426-1.71264 1.340469-.622556.282203-1.337536.423306-2.14494.423305-1.348318.000001-2.413153-.486017-3.194515-1.458052-.773009-.979872-1.106897-2.253705-1.001663-3.821509.105223-1.56779.614025-2.841623 1.526412-3.821507.91237-.979864 2.038791-1.4698 3.37927-1.469812.807403.000012 1.506835.148955 2.098296.446822.591957.290055 1.099202.732958 1.52173 1.32871l.103387-1.54036h1.681465l-.580864 8.654246c1.156049-.172456 2.084683-.69375 2.785901-1.563879.709543-.877964 1.11089-2.010696 1.204039-3.398204.056274-.838762-.016272-1.626582-.21764-2.363456-.193571-.736854-.52015-1.418846-.979733-2.045975-.74635-1.026894-1.689284-1.810793-2.82881-2.351697-1.131197-.548714-2.386618-.823079-3.766264-.823095-.96421.000016-1.897891.129359-2.801047.38803-.902652.250863-1.74708.627133-2.533287 1.128814-1.284398.799592-2.319095 1.850015-3.104098 3.151274-.77665 1.293444-1.215744 2.69662-1.317287 4.209539-.083659 1.246404.061356 2.414413.435048 3.504027.381523 1.089622.971626 2.049899 1.77031 2.880829.768368.815256 1.679238 1.434535 2.732615 1.857841 1.052833.431143 2.194615.646715 3.425347.646718 1.011216-.000003 2.014422-.172461 3.009622-.517372 1.002484-.33708 1.932666-.823097 2.790555-1.458053l.970662 1.305191c-1.030927.760381-2.139884 1.340465-3.326869 1.740255-1.179705.407625-2.365314.611438-3.556828.611442-1.450223-.000004-2.800763-.25869-4.051621-.776059-1.251403-.509538-2.345912-1.254241-3.283528-2.234113-.937627-.979874-1.625901-2.112606-2.064822-3.398204-.438402-1.293427-.607881-2.680929-.508437-4.162502.095756-1.426688.453567-2.786752 1.073433-4.080196.619864-1.293421 1.456534-2.430073 2.510021-3.40996 1.078041-.995537 2.297086-1.7559165 3.657137-2.2811454 1.360555-.5330365 2.781621-.7995607 4.263202-.7995781 1.661852.0000174 3.179324.3410135 4.552424 1.0229884 1.380902.6820071 2.511369 1.6501231 3.391403 2.9043461.53634.768232.927127 1.603086 1.172363 2.504559.253029.901491.347198 1.83433.282508 2.798519-.1384 2.061658-.870773 3.688248-2.197123 4.87977-1.326393 1.191529-3.088615 1.810809-5.286674 1.857842l.12154-1.810808" font-family="Bitstream Vera Sans" font-size="12" font-weight="400" style="line-height:120.00000477%"/>
  <path fill="url(#o)" d="M69.375 125a14.375 14.375 0 1 1-28.75 0 14.375 14.375 0 1 1 28.75 0z" color="#000" display="block" style="marker:none" transform="translate(-24.94992 -67.63529) scale(.61113)"/>
</svg>